 <svg width="164" height="60" viewBox="0 0 947 105" fill="none" xmlns="http://www.w3.org/2000/svg">
                <path d="M37.154 53.5737L29.3565 53.4262V52.5621H37.0065C53.7184 52.5621 64.087 43.6266 64.087 27.7788C64.087 11.6569 53.2758 2.00488 34.4143 2.00488H0V102.845H14.2673V58.189H29.2511C41.7903 58.189 46.237 63.5208 49.4192 83.3938C50.7048 91.0227 51.4424 97.9351 53.0229 102.845H68.8708C66.7002 97.0921 65.9836 94.0574 63.8341 81.9608C58.7552 55.0278 50.9787 54.3113 37.154 53.5737ZM14.2673 47.8204V12.542H31.4007C42.7808 12.542 49.1242 18.2953 49.1242 29.823C49.1242 41.3506 43.0759 47.8204 31.4007 47.8204H14.2673Z" fill="black"></path>
                <path d="M108.741 2.02417H94.4736V102.844H108.741V2.02417Z" fill="black"></path>
                <path d="M178.463 58.7758C174.859 71.1675 172.267 84.6972 172.414 91.1881H171.403C171.255 84.8447 168.516 71.1675 164.912 58.7758L148.348 2.02271H133.09L163.627 102.842H176.313L206.976 2.02271H195.027L178.463 58.7758Z" fill="black"></path>
                <path d="M244.423 56.0376H282.146V45.5215H244.423V12.5402H285.475V2.02417H230.155V102.844H286.339V92.3276H244.423V56.0376Z" fill="black"></path>
                <path d="M351.128 53.572L346.955 53.4245V52.5604H350.98C367.692 52.5604 378.061 43.6249 378.061 27.777C378.061 11.6552 367.249 2.00317 348.388 2.00317H313.974V102.844H328.241V58.1873H343.225C355.764 58.1873 360.211 63.5191 363.393 83.3921C364.678 91.021 365.416 97.9334 366.997 102.844H382.844C380.674 97.0904 379.957 94.0557 377.808 81.9591C372.729 55.0261 364.952 54.3096 351.128 53.572ZM328.22 47.8187V12.5403H345.353C356.733 12.5403 363.077 18.2936 363.077 29.8213C363.077 41.3489 357.028 47.8187 345.353 47.8187H328.22Z" fill="black"></path>
                <path d="M465.931 2.02417H451.664V102.844H465.931V2.02417Z" fill="black"></path>
                <path d="M540.804 48.1126L525.251 41.9168C516.611 38.3131 511.722 34.2879 511.722 25.2049C511.722 15.5528 518.339 10.9376 528.855 11.0851C539.519 11.0851 547 15.9743 548.012 31.1057L561.689 27.2069C560.825 8.64046 547.148 0 529.129 0C509.973 0 497.159 9.20947 497.159 26.6379C497.159 41.8957 506.095 49.8196 518.044 54.5824L534.461 61.1998C542.954 64.5084 547.422 69.4188 547.422 77.7642C547.422 88.5753 539.94 93.7596 528.834 93.7596C514.714 93.7596 508.097 84.9716 507.38 69.7138L493.408 73.739C493.83 93.4645 507.085 104.845 528.687 104.845C549.276 104.845 561.963 94.6236 561.963 76.0361C561.984 62.2324 554.334 53.5709 540.804 48.1126Z" fill="black"></path>
                <path d="M606.26 2.02271H591.992V102.842H646.301V91.4621H606.26V2.02271Z" fill="black"></path>
                <path d="M698.643 2.02271L666.821 102.842H679.213L687.853 74.1811H721.277L729.918 102.842H745.049L713.227 2.02271H698.643ZM690.867 63.9601L699.803 34.1399C702.395 25.7945 703.259 19.7462 703.828 11.9487H704.692C704.987 19.0086 706.567 25.921 709.16 34.1399L718.095 63.9601H690.867Z" fill="black"></path>
                <path d="M828.147 70.1348C828.147 77.3423 828.442 83.0956 830.022 93.0426H829.158C826.988 82.5265 823.826 75.3191 821.234 69.4183L789.686 2.02271H771.246V102.842H782.774V34.8565C782.774 27.6491 782.479 21.8958 780.898 11.9487H781.762C783.785 22.1697 787.094 29.7986 789.686 35.573L821.234 102.842H839.674V2.02271H828.147V70.1348Z" fill="black"></path>
                <path d="M903.9 2.02417H876.524V102.844H903.9C933.72 102.844 946.238 82.9706 946.238 52.4339C946.238 22.0448 933.72 2.02417 903.9 2.02417ZM902.614 92.3276H890.813V12.5402H902.614C924.932 12.5402 931.128 28.2406 931.128 52.4339C931.128 76.6272 924.932 92.3276 902.614 92.3276Z" fill="black"></path>
            </svg>